<?xml version="1.0" encoding="UTF-8" standalone="no"?>
<svg
   xmlns:dc="http://purl.org/dc/elements/1.1/"
   xmlns:cc="http://creativecommons.org/ns#"
   xmlns:rdf="http://www.w3.org/1999/02/22-rdf-syntax-ns#"
   xmlns:svg="http://www.w3.org/2000/svg"
   xmlns="http://www.w3.org/2000/svg"
   xmlns:sodipodi="http://sodipodi.sourceforge.net/DTD/sodipodi-0.dtd"
   xmlns:inkscape="http://www.inkscape.org/namespaces/inkscape"
   version="1.1"
   width="220px"
   height="220px"
   viewBox="0 0 220 220"
   preserveAspectRatio="xMinYMin meet"
   id="svg869"
   sodipodi:docname="qrcode.svg"
   inkscape:version="0.92.5 (2060ec1f9f, 2020-04-08)">
  <metadata
     id="metadata875">
    <rdf:RDF>
      <cc:Work
         rdf:about="">
        <dc:format>image/svg+xml</dc:format>
        <dc:type
           rdf:resource="http://purl.org/dc/dcmitype/StillImage" />
      </cc:Work>
    </rdf:RDF>
  </metadata>
  <defs
     id="defs873" />
  <sodipodi:namedview
     pagecolor="#ffffff"
     bordercolor="#666666"
     borderopacity="1"
     objecttolerance="10"
     gridtolerance="10"
     guidetolerance="10"
     inkscape:pageopacity="0"
     inkscape:pageshadow="2"
     inkscape:window-width="640"
     inkscape:window-height="480"
     id="namedview871"
     showgrid="false"
     inkscape:zoom="2.7727273"
     inkscape:cx="110"
     inkscape:cy="110"
     inkscape:current-layer="svg869" />
  <rect
     width="100%"
     height="100%"
     fill="#d7d7db"
     cx="0"
     cy="0"
     id="rect865"
     style="fill:#d7d7db;fill-opacity:0" />
  <path
     d="M20,20l4,0 0,4 -4,0 0,-4z M24,20l4,0 0,4 -4,0 0,-4z M28,20l4,0 0,4 -4,0 0,-4z M32,20l4,0 0,4 -4,0 0,-4z M36,20l4,0 0,4 -4,0 0,-4z M40,20l4,0 0,4 -4,0 0,-4z M44,20l4,0 0,4 -4,0 0,-4z M56,20l4,0 0,4 -4,0 0,-4z M60,20l4,0 0,4 -4,0 0,-4z M68,20l4,0 0,4 -4,0 0,-4z M80,20l4,0 0,4 -4,0 0,-4z M84,20l4,0 0,4 -4,0 0,-4z M92,20l4,0 0,4 -4,0 0,-4z M112,20l4,0 0,4 -4,0 0,-4z M116,20l4,0 0,4 -4,0 0,-4z M120,20l4,0 0,4 -4,0 0,-4z M124,20l4,0 0,4 -4,0 0,-4z M136,20l4,0 0,4 -4,0 0,-4z M140,20l4,0 0,4 -4,0 0,-4z M148,20l4,0 0,4 -4,0 0,-4z M152,20l4,0 0,4 -4,0 0,-4z M164,20l4,0 0,4 -4,0 0,-4z M172,20l4,0 0,4 -4,0 0,-4z M176,20l4,0 0,4 -4,0 0,-4z M180,20l4,0 0,4 -4,0 0,-4z M184,20l4,0 0,4 -4,0 0,-4z M188,20l4,0 0,4 -4,0 0,-4z M192,20l4,0 0,4 -4,0 0,-4z M196,20l4,0 0,4 -4,0 0,-4z M20,24l4,0 0,4 -4,0 0,-4z M44,24l4,0 0,4 -4,0 0,-4z M72,24l4,0 0,4 -4,0 0,-4z M80,24l4,0 0,4 -4,0 0,-4z M88,24l4,0 0,4 -4,0 0,-4z M96,24l4,0 0,4 -4,0 0,-4z M100,24l4,0 0,4 -4,0 0,-4z M104,24l4,0 0,4 -4,0 0,-4z M108,24l4,0 0,4 -4,0 0,-4z M116,24l4,0 0,4 -4,0 0,-4z M144,24l4,0 0,4 -4,0 0,-4z M148,24l4,0 0,4 -4,0 0,-4z M160,24l4,0 0,4 -4,0 0,-4z M172,24l4,0 0,4 -4,0 0,-4z M196,24l4,0 0,4 -4,0 0,-4z M20,28l4,0 0,4 -4,0 0,-4z M28,28l4,0 0,4 -4,0 0,-4z M32,28l4,0 0,4 -4,0 0,-4z M36,28l4,0 0,4 -4,0 0,-4z M44,28l4,0 0,4 -4,0 0,-4z M52,28l4,0 0,4 -4,0 0,-4z M64,28l4,0 0,4 -4,0 0,-4z M68,28l4,0 0,4 -4,0 0,-4z M72,28l4,0 0,4 -4,0 0,-4z M80,28l4,0 0,4 -4,0 0,-4z M84,28l4,0 0,4 -4,0 0,-4z M88,28l4,0 0,4 -4,0 0,-4z M96,28l4,0 0,4 -4,0 0,-4z M100,28l4,0 0,4 -4,0 0,-4z M104,28l4,0 0,4 -4,0 0,-4z M108,28l4,0 0,4 -4,0 0,-4z M112,28l4,0 0,4 -4,0 0,-4z M116,28l4,0 0,4 -4,0 0,-4z M120,28l4,0 0,4 -4,0 0,-4z M124,28l4,0 0,4 -4,0 0,-4z M128,28l4,0 0,4 -4,0 0,-4z M132,28l4,0 0,4 -4,0 0,-4z M136,28l4,0 0,4 -4,0 0,-4z M152,28l4,0 0,4 -4,0 0,-4z M160,28l4,0 0,4 -4,0 0,-4z M172,28l4,0 0,4 -4,0 0,-4z M180,28l4,0 0,4 -4,0 0,-4z M184,28l4,0 0,4 -4,0 0,-4z M188,28l4,0 0,4 -4,0 0,-4z M196,28l4,0 0,4 -4,0 0,-4z M20,32l4,0 0,4 -4,0 0,-4z M28,32l4,0 0,4 -4,0 0,-4z M32,32l4,0 0,4 -4,0 0,-4z M36,32l4,0 0,4 -4,0 0,-4z M44,32l4,0 0,4 -4,0 0,-4z M56,32l4,0 0,4 -4,0 0,-4z M64,32l4,0 0,4 -4,0 0,-4z M72,32l4,0 0,4 -4,0 0,-4z M80,32l4,0 0,4 -4,0 0,-4z M84,32l4,0 0,4 -4,0 0,-4z M100,32l4,0 0,4 -4,0 0,-4z M104,32l4,0 0,4 -4,0 0,-4z M112,32l4,0 0,4 -4,0 0,-4z M116,32l4,0 0,4 -4,0 0,-4z M124,32l4,0 0,4 -4,0 0,-4z M132,32l4,0 0,4 -4,0 0,-4z M136,32l4,0 0,4 -4,0 0,-4z M144,32l4,0 0,4 -4,0 0,-4z M148,32l4,0 0,4 -4,0 0,-4z M152,32l4,0 0,4 -4,0 0,-4z M160,32l4,0 0,4 -4,0 0,-4z M164,32l4,0 0,4 -4,0 0,-4z M172,32l4,0 0,4 -4,0 0,-4z M180,32l4,0 0,4 -4,0 0,-4z M184,32l4,0 0,4 -4,0 0,-4z M188,32l4,0 0,4 -4,0 0,-4z M196,32l4,0 0,4 -4,0 0,-4z M20,36l4,0 0,4 -4,0 0,-4z M28,36l4,0 0,4 -4,0 0,-4z M32,36l4,0 0,4 -4,0 0,-4z M36,36l4,0 0,4 -4,0 0,-4z M44,36l4,0 0,4 -4,0 0,-4z M52,36l4,0 0,4 -4,0 0,-4z M64,36l4,0 0,4 -4,0 0,-4z M68,36l4,0 0,4 -4,0 0,-4z M80,36l4,0 0,4 -4,0 0,-4z M88,36l4,0 0,4 -4,0 0,-4z M92,36l4,0 0,4 -4,0 0,-4z M100,36l4,0 0,4 -4,0 0,-4z M104,36l4,0 0,4 -4,0 0,-4z M108,36l4,0 0,4 -4,0 0,-4z M112,36l4,0 0,4 -4,0 0,-4z M116,36l4,0 0,4 -4,0 0,-4z M128,36l4,0 0,4 -4,0 0,-4z M132,36l4,0 0,4 -4,0 0,-4z M136,36l4,0 0,4 -4,0 0,-4z M140,36l4,0 0,4 -4,0 0,-4z M144,36l4,0 0,4 -4,0 0,-4z M152,36l4,0 0,4 -4,0 0,-4z M156,36l4,0 0,4 -4,0 0,-4z M160,36l4,0 0,4 -4,0 0,-4z M164,36l4,0 0,4 -4,0 0,-4z M172,36l4,0 0,4 -4,0 0,-4z M180,36l4,0 0,4 -4,0 0,-4z M184,36l4,0 0,4 -4,0 0,-4z M188,36l4,0 0,4 -4,0 0,-4z M196,36l4,0 0,4 -4,0 0,-4z M20,40l4,0 0,4 -4,0 0,-4z M44,40l4,0 0,4 -4,0 0,-4z M52,40l4,0 0,4 -4,0 0,-4z M60,40l4,0 0,4 -4,0 0,-4z M64,40l4,0 0,4 -4,0 0,-4z M68,40l4,0 0,4 -4,0 0,-4z M92,40l4,0 0,4 -4,0 0,-4z M100,40l4,0 0,4 -4,0 0,-4z M116,40l4,0 0,4 -4,0 0,-4z M120,40l4,0 0,4 -4,0 0,-4z M124,40l4,0 0,4 -4,0 0,-4z M128,40l4,0 0,4 -4,0 0,-4z M132,40l4,0 0,4 -4,0 0,-4z M152,40l4,0 0,4 -4,0 0,-4z M172,40l4,0 0,4 -4,0 0,-4z M196,40l4,0 0,4 -4,0 0,-4z M20,44l4,0 0,4 -4,0 0,-4z M24,44l4,0 0,4 -4,0 0,-4z M28,44l4,0 0,4 -4,0 0,-4z M32,44l4,0 0,4 -4,0 0,-4z M36,44l4,0 0,4 -4,0 0,-4z M40,44l4,0 0,4 -4,0 0,-4z M44,44l4,0 0,4 -4,0 0,-4z M52,44l4,0 0,4 -4,0 0,-4z M60,44l4,0 0,4 -4,0 0,-4z M68,44l4,0 0,4 -4,0 0,-4z M76,44l4,0 0,4 -4,0 0,-4z M84,44l4,0 0,4 -4,0 0,-4z M92,44l4,0 0,4 -4,0 0,-4z M100,44l4,0 0,4 -4,0 0,-4z M108,44l4,0 0,4 -4,0 0,-4z M116,44l4,0 0,4 -4,0 0,-4z M124,44l4,0 0,4 -4,0 0,-4z M132,44l4,0 0,4 -4,0 0,-4z M140,44l4,0 0,4 -4,0 0,-4z M148,44l4,0 0,4 -4,0 0,-4z M156,44l4,0 0,4 -4,0 0,-4z M164,44l4,0 0,4 -4,0 0,-4z M172,44l4,0 0,4 -4,0 0,-4z M176,44l4,0 0,4 -4,0 0,-4z M180,44l4,0 0,4 -4,0 0,-4z M184,44l4,0 0,4 -4,0 0,-4z M188,44l4,0 0,4 -4,0 0,-4z M192,44l4,0 0,4 -4,0 0,-4z M196,44l4,0 0,4 -4,0 0,-4z M56,48l4,0 0,4 -4,0 0,-4z M60,48l4,0 0,4 -4,0 0,-4z M68,48l4,0 0,4 -4,0 0,-4z M72,48l4,0 0,4 -4,0 0,-4z M76,48l4,0 0,4 -4,0 0,-4z M84,48l4,0 0,4 -4,0 0,-4z M88,48l4,0 0,4 -4,0 0,-4z M92,48l4,0 0,4 -4,0 0,-4z M100,48l4,0 0,4 -4,0 0,-4z M116,48l4,0 0,4 -4,0 0,-4z M120,48l4,0 0,4 -4,0 0,-4z M128,48l4,0 0,4 -4,0 0,-4z M136,48l4,0 0,4 -4,0 0,-4z M152,48l4,0 0,4 -4,0 0,-4z M156,48l4,0 0,4 -4,0 0,-4z M160,48l4,0 0,4 -4,0 0,-4z M164,48l4,0 0,4 -4,0 0,-4z M24,52l4,0 0,4 -4,0 0,-4z M36,52l4,0 0,4 -4,0 0,-4z M44,52l4,0 0,4 -4,0 0,-4z M52,52l4,0 0,4 -4,0 0,-4z M56,52l4,0 0,4 -4,0 0,-4z M68,52l4,0 0,4 -4,0 0,-4z M72,52l4,0 0,4 -4,0 0,-4z M80,52l4,0 0,4 -4,0 0,-4z M84,52l4,0 0,4 -4,0 0,-4z M88,52l4,0 0,4 -4,0 0,-4z M96,52l4,0 0,4 -4,0 0,-4z M100,52l4,0 0,4 -4,0 0,-4z M104,52l4,0 0,4 -4,0 0,-4z M108,52l4,0 0,4 -4,0 0,-4z M112,52l4,0 0,4 -4,0 0,-4z M116,52l4,0 0,4 -4,0 0,-4z M124,52l4,0 0,4 -4,0 0,-4z M128,52l4,0 0,4 -4,0 0,-4z M148,52l4,0 0,4 -4,0 0,-4z M152,52l4,0 0,4 -4,0 0,-4z M156,52l4,0 0,4 -4,0 0,-4z M168,52l4,0 0,4 -4,0 0,-4z M176,52l4,0 0,4 -4,0 0,-4z M180,52l4,0 0,4 -4,0 0,-4z M188,52l4,0 0,4 -4,0 0,-4z M20,56l4,0 0,4 -4,0 0,-4z M24,56l4,0 0,4 -4,0 0,-4z M32,56l4,0 0,4 -4,0 0,-4z M48,56l4,0 0,4 -4,0 0,-4z M56,56l4,0 0,4 -4,0 0,-4z M68,56l4,0 0,4 -4,0 0,-4z M72,56l4,0 0,4 -4,0 0,-4z M100,56l4,0 0,4 -4,0 0,-4z M104,56l4,0 0,4 -4,0 0,-4z M108,56l4,0 0,4 -4,0 0,-4z M112,56l4,0 0,4 -4,0 0,-4z M116,56l4,0 0,4 -4,0 0,-4z M124,56l4,0 0,4 -4,0 0,-4z M140,56l4,0 0,4 -4,0 0,-4z M144,56l4,0 0,4 -4,0 0,-4z M152,56l4,0 0,4 -4,0 0,-4z M160,56l4,0 0,4 -4,0 0,-4z M164,56l4,0 0,4 -4,0 0,-4z M172,56l4,0 0,4 -4,0 0,-4z M176,56l4,0 0,4 -4,0 0,-4z M180,56l4,0 0,4 -4,0 0,-4z M32,60l4,0 0,4 -4,0 0,-4z M36,60l4,0 0,4 -4,0 0,-4z M40,60l4,0 0,4 -4,0 0,-4z M44,60l4,0 0,4 -4,0 0,-4z M48,60l4,0 0,4 -4,0 0,-4z M64,60l4,0 0,4 -4,0 0,-4z M72,60l4,0 0,4 -4,0 0,-4z M80,60l4,0 0,4 -4,0 0,-4z M104,60l4,0 0,4 -4,0 0,-4z M108,60l4,0 0,4 -4,0 0,-4z M112,60l4,0 0,4 -4,0 0,-4z M116,60l4,0 0,4 -4,0 0,-4z M120,60l4,0 0,4 -4,0 0,-4z M124,60l4,0 0,4 -4,0 0,-4z M132,60l4,0 0,4 -4,0 0,-4z M136,60l4,0 0,4 -4,0 0,-4z M140,60l4,0 0,4 -4,0 0,-4z M148,60l4,0 0,4 -4,0 0,-4z M152,60l4,0 0,4 -4,0 0,-4z M168,60l4,0 0,4 -4,0 0,-4z M172,60l4,0 0,4 -4,0 0,-4z M176,60l4,0 0,4 -4,0 0,-4z M180,60l4,0 0,4 -4,0 0,-4z M192,60l4,0 0,4 -4,0 0,-4z M20,64l4,0 0,4 -4,0 0,-4z M32,64l4,0 0,4 -4,0 0,-4z M36,64l4,0 0,4 -4,0 0,-4z M40,64l4,0 0,4 -4,0 0,-4z M56,64l4,0 0,4 -4,0 0,-4z M68,64l4,0 0,4 -4,0 0,-4z M72,64l4,0 0,4 -4,0 0,-4z M76,64l4,0 0,4 -4,0 0,-4z M84,64l4,0 0,4 -4,0 0,-4z M88,64l4,0 0,4 -4,0 0,-4z M96,64l4,0 0,4 -4,0 0,-4z M104,64l4,0 0,4 -4,0 0,-4z M116,64l4,0 0,4 -4,0 0,-4z M128,64l4,0 0,4 -4,0 0,-4z M148,64l4,0 0,4 -4,0 0,-4z M152,64l4,0 0,4 -4,0 0,-4z M156,64l4,0 0,4 -4,0 0,-4z M160,64l4,0 0,4 -4,0 0,-4z M168,64l4,0 0,4 -4,0 0,-4z M176,64l4,0 0,4 -4,0 0,-4z M20,68l4,0 0,4 -4,0 0,-4z M36,68l4,0 0,4 -4,0 0,-4z M44,68l4,0 0,4 -4,0 0,-4z M60,68l4,0 0,4 -4,0 0,-4z M80,68l4,0 0,4 -4,0 0,-4z M88,68l4,0 0,4 -4,0 0,-4z M96,68l4,0 0,4 -4,0 0,-4z M100,68l4,0 0,4 -4,0 0,-4z M120,68l4,0 0,4 -4,0 0,-4z M124,68l4,0 0,4 -4,0 0,-4z M136,68l4,0 0,4 -4,0 0,-4z M148,68l4,0 0,4 -4,0 0,-4z M152,68l4,0 0,4 -4,0 0,-4z M168,68l4,0 0,4 -4,0 0,-4z M172,68l4,0 0,4 -4,0 0,-4z M192,68l4,0 0,4 -4,0 0,-4z M196,68l4,0 0,4 -4,0 0,-4z M20,72l4,0 0,4 -4,0 0,-4z M24,72l4,0 0,4 -4,0 0,-4z M28,72l4,0 0,4 -4,0 0,-4z M32,72l4,0 0,4 -4,0 0,-4z M40,72l4,0 0,4 -4,0 0,-4z M56,72l4,0 0,4 -4,0 0,-4z M60,72l4,0 0,4 -4,0 0,-4z M64,72l4,0 0,4 -4,0 0,-4z M68,72l4,0 0,4 -4,0 0,-4z M80,72l4,0 0,4 -4,0 0,-4z M88,72l4,0 0,4 -4,0 0,-4z M92,72l4,0 0,4 -4,0 0,-4z M104,72l4,0 0,4 -4,0 0,-4z M108,72l4,0 0,4 -4,0 0,-4z M112,72l4,0 0,4 -4,0 0,-4z M116,72l4,0 0,4 -4,0 0,-4z M124,72l4,0 0,4 -4,0 0,-4z M136,72l4,0 0,4 -4,0 0,-4z M140,72l4,0 0,4 -4,0 0,-4z M148,72l4,0 0,4 -4,0 0,-4z M160,72l4,0 0,4 -4,0 0,-4z M164,72l4,0 0,4 -4,0 0,-4z M172,72l4,0 0,4 -4,0 0,-4z M180,72l4,0 0,4 -4,0 0,-4z M184,72l4,0 0,4 -4,0 0,-4z M192,72l4,0 0,4 -4,0 0,-4z M24,76l4,0 0,4 -4,0 0,-4z M28,76l4,0 0,4 -4,0 0,-4z M40,76l4,0 0,4 -4,0 0,-4z M44,76l4,0 0,4 -4,0 0,-4z M52,76l4,0 0,4 -4,0 0,-4z M64,76l4,0 0,4 -4,0 0,-4z M72,76l4,0 0,4 -4,0 0,-4z M80,76l4,0 0,4 -4,0 0,-4z M92,76l4,0 0,4 -4,0 0,-4z M96,76l4,0 0,4 -4,0 0,-4z M100,76l4,0 0,4 -4,0 0,-4z M104,76l4,0 0,4 -4,0 0,-4z M108,76l4,0 0,4 -4,0 0,-4z M112,76l4,0 0,4 -4,0 0,-4z M124,76l4,0 0,4 -4,0 0,-4z M136,76l4,0 0,4 -4,0 0,-4z M140,76l4,0 0,4 -4,0 0,-4z M148,76l4,0 0,4 -4,0 0,-4z M152,76l4,0 0,4 -4,0 0,-4z M156,76l4,0 0,4 -4,0 0,-4z M160,76l4,0 0,4 -4,0 0,-4z M164,76l4,0 0,4 -4,0 0,-4z M172,76l4,0 0,4 -4,0 0,-4z M176,76l4,0 0,4 -4,0 0,-4z M180,76l4,0 0,4 -4,0 0,-4z M192,76l4,0 0,4 -4,0 0,-4z M20,80l4,0 0,4 -4,0 0,-4z M28,80l4,0 0,4 -4,0 0,-4z M32,80l4,0 0,4 -4,0 0,-4z M48,80l4,0 0,4 -4,0 0,-4z M60,80l4,0 0,4 -4,0 0,-4z M76,80l4,0 0,4 -4,0 0,-4z M92,80l4,0 0,4 -4,0 0,-4z M96,80l4,0 0,4 -4,0 0,-4z M100,80l4,0 0,4 -4,0 0,-4z M104,80l4,0 0,4 -4,0 0,-4z M112,80l4,0 0,4 -4,0 0,-4z M116,80l4,0 0,4 -4,0 0,-4z M124,80l4,0 0,4 -4,0 0,-4z M132,80l4,0 0,4 -4,0 0,-4z M136,80l4,0 0,4 -4,0 0,-4z M140,80l4,0 0,4 -4,0 0,-4z M144,80l4,0 0,4 -4,0 0,-4z M148,80l4,0 0,4 -4,0 0,-4z M152,80l4,0 0,4 -4,0 0,-4z M156,80l4,0 0,4 -4,0 0,-4z M168,80l4,0 0,4 -4,0 0,-4z M176,80l4,0 0,4 -4,0 0,-4z M192,80l4,0 0,4 -4,0 0,-4z M32,84l4,0 0,4 -4,0 0,-4z M36,84l4,0 0,4 -4,0 0,-4z M44,84l4,0 0,4 -4,0 0,-4z M52,84l4,0 0,4 -4,0 0,-4z M64,84l4,0 0,4 -4,0 0,-4z M72,84l4,0 0,4 -4,0 0,-4z M80,84l4,0 0,4 -4,0 0,-4z M92,84l4,0 0,4 -4,0 0,-4z M96,84l4,0 0,4 -4,0 0,-4z M108,84l4,0 0,4 -4,0 0,-4z M112,84l4,0 0,4 -4,0 0,-4z M120,84l4,0 0,4 -4,0 0,-4z M128,84l4,0 0,4 -4,0 0,-4z M140,84l4,0 0,4 -4,0 0,-4z M148,84l4,0 0,4 -4,0 0,-4z M176,84l4,0 0,4 -4,0 0,-4z M196,84l4,0 0,4 -4,0 0,-4z M20,88l4,0 0,4 -4,0 0,-4z M24,88l4,0 0,4 -4,0 0,-4z M32,88l4,0 0,4 -4,0 0,-4z M40,88l4,0 0,4 -4,0 0,-4z M56,88l4,0 0,4 -4,0 0,-4z M60,88l4,0 0,4 -4,0 0,-4z M72,88l4,0 0,4 -4,0 0,-4z M80,88l4,0 0,4 -4,0 0,-4z M92,88l4,0 0,4 -4,0 0,-4z M104,88l4,0 0,4 -4,0 0,-4z M108,88l4,0 0,4 -4,0 0,-4z M120,88l4,0 0,4 -4,0 0,-4z M124,88l4,0 0,4 -4,0 0,-4z M132,88l4,0 0,4 -4,0 0,-4z M136,88l4,0 0,4 -4,0 0,-4z M140,88l4,0 0,4 -4,0 0,-4z M148,88l4,0 0,4 -4,0 0,-4z M152,88l4,0 0,4 -4,0 0,-4z M164,88l4,0 0,4 -4,0 0,-4z M172,88l4,0 0,4 -4,0 0,-4z M176,88l4,0 0,4 -4,0 0,-4z M184,88l4,0 0,4 -4,0 0,-4z M192,88l4,0 0,4 -4,0 0,-4z M196,88l4,0 0,4 -4,0 0,-4z M24,92l4,0 0,4 -4,0 0,-4z M32,92l4,0 0,4 -4,0 0,-4z M36,92l4,0 0,4 -4,0 0,-4z M40,92l4,0 0,4 -4,0 0,-4z M44,92l4,0 0,4 -4,0 0,-4z M52,92l4,0 0,4 -4,0 0,-4z M64,92l4,0 0,4 -4,0 0,-4z M72,92l4,0 0,4 -4,0 0,-4z M80,92l4,0 0,4 -4,0 0,-4z M88,92l4,0 0,4 -4,0 0,-4z M96,92l4,0 0,4 -4,0 0,-4z M104,92l4,0 0,4 -4,0 0,-4z M124,92l4,0 0,4 -4,0 0,-4z M128,92l4,0 0,4 -4,0 0,-4z M140,92l4,0 0,4 -4,0 0,-4z M144,92l4,0 0,4 -4,0 0,-4z M152,92l4,0 0,4 -4,0 0,-4z M156,92l4,0 0,4 -4,0 0,-4z M168,92l4,0 0,4 -4,0 0,-4z M172,92l4,0 0,4 -4,0 0,-4z M176,92l4,0 0,4 -4,0 0,-4z M188,92l4,0 0,4 -4,0 0,-4z M192,92l4,0 0,4 -4,0 0,-4z M28,96l4,0 0,4 -4,0 0,-4z M48,96l4,0 0,4 -4,0 0,-4z M60,96l4,0 0,4 -4,0 0,-4z M64,96l4,0 0,4 -4,0 0,-4z M84,96l4,0 0,4 -4,0 0,-4z M88,96l4,0 0,4 -4,0 0,-4z M92,96l4,0 0,4 -4,0 0,-4z M96,96l4,0 0,4 -4,0 0,-4z M108,96l4,0 0,4 -4,0 0,-4z M132,96l4,0 0,4 -4,0 0,-4z M136,96l4,0 0,4 -4,0 0,-4z M144,96l4,0 0,4 -4,0 0,-4z M148,96l4,0 0,4 -4,0 0,-4z M156,96l4,0 0,4 -4,0 0,-4z M168,96l4,0 0,4 -4,0 0,-4z M176,96l4,0 0,4 -4,0 0,-4z M196,96l4,0 0,4 -4,0 0,-4z M20,100l4,0 0,4 -4,0 0,-4z M32,100l4,0 0,4 -4,0 0,-4z M36,100l4,0 0,4 -4,0 0,-4z M40,100l4,0 0,4 -4,0 0,-4z M44,100l4,0 0,4 -4,0 0,-4z M48,100l4,0 0,4 -4,0 0,-4z M52,100l4,0 0,4 -4,0 0,-4z M56,100l4,0 0,4 -4,0 0,-4z M60,100l4,0 0,4 -4,0 0,-4z M64,100l4,0 0,4 -4,0 0,-4z M76,100l4,0 0,4 -4,0 0,-4z M96,100l4,0 0,4 -4,0 0,-4z M100,100l4,0 0,4 -4,0 0,-4z M104,100l4,0 0,4 -4,0 0,-4z M108,100l4,0 0,4 -4,0 0,-4z M112,100l4,0 0,4 -4,0 0,-4z M116,100l4,0 0,4 -4,0 0,-4z M124,100l4,0 0,4 -4,0 0,-4z M136,100l4,0 0,4 -4,0 0,-4z M140,100l4,0 0,4 -4,0 0,-4z M148,100l4,0 0,4 -4,0 0,-4z M152,100l4,0 0,4 -4,0 0,-4z M164,100l4,0 0,4 -4,0 0,-4z M168,100l4,0 0,4 -4,0 0,-4z M172,100l4,0 0,4 -4,0 0,-4z M176,100l4,0 0,4 -4,0 0,-4z M180,100l4,0 0,4 -4,0 0,-4z M20,104l4,0 0,4 -4,0 0,-4z M24,104l4,0 0,4 -4,0 0,-4z M36,104l4,0 0,4 -4,0 0,-4z M52,104l4,0 0,4 -4,0 0,-4z M56,104l4,0 0,4 -4,0 0,-4z M60,104l4,0 0,4 -4,0 0,-4z M80,104l4,0 0,4 -4,0 0,-4z M84,104l4,0 0,4 -4,0 0,-4z M88,104l4,0 0,4 -4,0 0,-4z M96,104l4,0 0,4 -4,0 0,-4z M100,104l4,0 0,4 -4,0 0,-4z M116,104l4,0 0,4 -4,0 0,-4z M120,104l4,0 0,4 -4,0 0,-4z M124,104l4,0 0,4 -4,0 0,-4z M128,104l4,0 0,4 -4,0 0,-4z M140,104l4,0 0,4 -4,0 0,-4z M152,104l4,0 0,4 -4,0 0,-4z M160,104l4,0 0,4 -4,0 0,-4z M164,104l4,0 0,4 -4,0 0,-4z M180,104l4,0 0,4 -4,0 0,-4z M192,104l4,0 0,4 -4,0 0,-4z M20,108l4,0 0,4 -4,0 0,-4z M24,108l4,0 0,4 -4,0 0,-4z M28,108l4,0 0,4 -4,0 0,-4z M32,108l4,0 0,4 -4,0 0,-4z M36,108l4,0 0,4 -4,0 0,-4z M44,108l4,0 0,4 -4,0 0,-4z M52,108l4,0 0,4 -4,0 0,-4z M60,108l4,0 0,4 -4,0 0,-4z M64,108l4,0 0,4 -4,0 0,-4z M84,108l4,0 0,4 -4,0 0,-4z M88,108l4,0 0,4 -4,0 0,-4z M100,108l4,0 0,4 -4,0 0,-4z M108,108l4,0 0,4 -4,0 0,-4z M116,108l4,0 0,4 -4,0 0,-4z M120,108l4,0 0,4 -4,0 0,-4z M128,108l4,0 0,4 -4,0 0,-4z M132,108l4,0 0,4 -4,0 0,-4z M144,108l4,0 0,4 -4,0 0,-4z M148,108l4,0 0,4 -4,0 0,-4z M152,108l4,0 0,4 -4,0 0,-4z M164,108l4,0 0,4 -4,0 0,-4z M172,108l4,0 0,4 -4,0 0,-4z M180,108l4,0 0,4 -4,0 0,-4z M184,108l4,0 0,4 -4,0 0,-4z M188,108l4,0 0,4 -4,0 0,-4z M20,112l4,0 0,4 -4,0 0,-4z M28,112l4,0 0,4 -4,0 0,-4z M36,112l4,0 0,4 -4,0 0,-4z M52,112l4,0 0,4 -4,0 0,-4z M68,112l4,0 0,4 -4,0 0,-4z M72,112l4,0 0,4 -4,0 0,-4z M76,112l4,0 0,4 -4,0 0,-4z M80,112l4,0 0,4 -4,0 0,-4z M92,112l4,0 0,4 -4,0 0,-4z M100,112l4,0 0,4 -4,0 0,-4z M116,112l4,0 0,4 -4,0 0,-4z M124,112l4,0 0,4 -4,0 0,-4z M136,112l4,0 0,4 -4,0 0,-4z M140,112l4,0 0,4 -4,0 0,-4z M148,112l4,0 0,4 -4,0 0,-4z M160,112l4,0 0,4 -4,0 0,-4z M164,112l4,0 0,4 -4,0 0,-4z M180,112l4,0 0,4 -4,0 0,-4z M192,112l4,0 0,4 -4,0 0,-4z M196,112l4,0 0,4 -4,0 0,-4z M20,116l4,0 0,4 -4,0 0,-4z M24,116l4,0 0,4 -4,0 0,-4z M32,116l4,0 0,4 -4,0 0,-4z M36,116l4,0 0,4 -4,0 0,-4z M40,116l4,0 0,4 -4,0 0,-4z M44,116l4,0 0,4 -4,0 0,-4z M48,116l4,0 0,4 -4,0 0,-4z M52,116l4,0 0,4 -4,0 0,-4z M56,116l4,0 0,4 -4,0 0,-4z M60,116l4,0 0,4 -4,0 0,-4z M64,116l4,0 0,4 -4,0 0,-4z M68,116l4,0 0,4 -4,0 0,-4z M72,116l4,0 0,4 -4,0 0,-4z M76,116l4,0 0,4 -4,0 0,-4z M84,116l4,0 0,4 -4,0 0,-4z M88,116l4,0 0,4 -4,0 0,-4z M96,116l4,0 0,4 -4,0 0,-4z M100,116l4,0 0,4 -4,0 0,-4z M104,116l4,0 0,4 -4,0 0,-4z M108,116l4,0 0,4 -4,0 0,-4z M112,116l4,0 0,4 -4,0 0,-4z M116,116l4,0 0,4 -4,0 0,-4z M124,116l4,0 0,4 -4,0 0,-4z M128,116l4,0 0,4 -4,0 0,-4z M136,116l4,0 0,4 -4,0 0,-4z M140,116l4,0 0,4 -4,0 0,-4z M148,116l4,0 0,4 -4,0 0,-4z M152,116l4,0 0,4 -4,0 0,-4z M160,116l4,0 0,4 -4,0 0,-4z M164,116l4,0 0,4 -4,0 0,-4z M168,116l4,0 0,4 -4,0 0,-4z M172,116l4,0 0,4 -4,0 0,-4z M176,116l4,0 0,4 -4,0 0,-4z M180,116l4,0 0,4 -4,0 0,-4z M28,120l4,0 0,4 -4,0 0,-4z M40,120l4,0 0,4 -4,0 0,-4z M52,120l4,0 0,4 -4,0 0,-4z M56,120l4,0 0,4 -4,0 0,-4z M64,120l4,0 0,4 -4,0 0,-4z M72,120l4,0 0,4 -4,0 0,-4z M84,120l4,0 0,4 -4,0 0,-4z M92,120l4,0 0,4 -4,0 0,-4z M96,120l4,0 0,4 -4,0 0,-4z M136,120l4,0 0,4 -4,0 0,-4z M140,120l4,0 0,4 -4,0 0,-4z M144,120l4,0 0,4 -4,0 0,-4z M148,120l4,0 0,4 -4,0 0,-4z M152,120l4,0 0,4 -4,0 0,-4z M160,120l4,0 0,4 -4,0 0,-4z M164,120l4,0 0,4 -4,0 0,-4z M172,120l4,0 0,4 -4,0 0,-4z M176,120l4,0 0,4 -4,0 0,-4z M188,120l4,0 0,4 -4,0 0,-4z M192,120l4,0 0,4 -4,0 0,-4z M20,124l4,0 0,4 -4,0 0,-4z M32,124l4,0 0,4 -4,0 0,-4z M36,124l4,0 0,4 -4,0 0,-4z M44,124l4,0 0,4 -4,0 0,-4z M48,124l4,0 0,4 -4,0 0,-4z M52,124l4,0 0,4 -4,0 0,-4z M56,124l4,0 0,4 -4,0 0,-4z M60,124l4,0 0,4 -4,0 0,-4z M88,124l4,0 0,4 -4,0 0,-4z M96,124l4,0 0,4 -4,0 0,-4z M100,124l4,0 0,4 -4,0 0,-4z M108,124l4,0 0,4 -4,0 0,-4z M112,124l4,0 0,4 -4,0 0,-4z M116,124l4,0 0,4 -4,0 0,-4z M120,124l4,0 0,4 -4,0 0,-4z M124,124l4,0 0,4 -4,0 0,-4z M132,124l4,0 0,4 -4,0 0,-4z M140,124l4,0 0,4 -4,0 0,-4z M144,124l4,0 0,4 -4,0 0,-4z M148,124l4,0 0,4 -4,0 0,-4z M152,124l4,0 0,4 -4,0 0,-4z M160,124l4,0 0,4 -4,0 0,-4z M168,124l4,0 0,4 -4,0 0,-4z M176,124l4,0 0,4 -4,0 0,-4z M184,124l4,0 0,4 -4,0 0,-4z M188,124l4,0 0,4 -4,0 0,-4z M192,124l4,0 0,4 -4,0 0,-4z M20,128l4,0 0,4 -4,0 0,-4z M28,128l4,0 0,4 -4,0 0,-4z M32,128l4,0 0,4 -4,0 0,-4z M36,128l4,0 0,4 -4,0 0,-4z M48,128l4,0 0,4 -4,0 0,-4z M52,128l4,0 0,4 -4,0 0,-4z M60,128l4,0 0,4 -4,0 0,-4z M64,128l4,0 0,4 -4,0 0,-4z M80,128l4,0 0,4 -4,0 0,-4z M84,128l4,0 0,4 -4,0 0,-4z M96,128l4,0 0,4 -4,0 0,-4z M108,128l4,0 0,4 -4,0 0,-4z M112,128l4,0 0,4 -4,0 0,-4z M116,128l4,0 0,4 -4,0 0,-4z M120,128l4,0 0,4 -4,0 0,-4z M128,128l4,0 0,4 -4,0 0,-4z M144,128l4,0 0,4 -4,0 0,-4z M152,128l4,0 0,4 -4,0 0,-4z M156,128l4,0 0,4 -4,0 0,-4z M164,128l4,0 0,4 -4,0 0,-4z M168,128l4,0 0,4 -4,0 0,-4z M172,128l4,0 0,4 -4,0 0,-4z M184,128l4,0 0,4 -4,0 0,-4z M192,128l4,0 0,4 -4,0 0,-4z M196,128l4,0 0,4 -4,0 0,-4z M28,132l4,0 0,4 -4,0 0,-4z M36,132l4,0 0,4 -4,0 0,-4z M44,132l4,0 0,4 -4,0 0,-4z M48,132l4,0 0,4 -4,0 0,-4z M52,132l4,0 0,4 -4,0 0,-4z M56,132l4,0 0,4 -4,0 0,-4z M64,132l4,0 0,4 -4,0 0,-4z M68,132l4,0 0,4 -4,0 0,-4z M76,132l4,0 0,4 -4,0 0,-4z M80,132l4,0 0,4 -4,0 0,-4z M84,132l4,0 0,4 -4,0 0,-4z M100,132l4,0 0,4 -4,0 0,-4z M108,132l4,0 0,4 -4,0 0,-4z M112,132l4,0 0,4 -4,0 0,-4z M120,132l4,0 0,4 -4,0 0,-4z M128,132l4,0 0,4 -4,0 0,-4z M136,132l4,0 0,4 -4,0 0,-4z M140,132l4,0 0,4 -4,0 0,-4z M144,132l4,0 0,4 -4,0 0,-4z M148,132l4,0 0,4 -4,0 0,-4z M164,132l4,0 0,4 -4,0 0,-4z M180,132l4,0 0,4 -4,0 0,-4z M196,132l4,0 0,4 -4,0 0,-4z M24,136l4,0 0,4 -4,0 0,-4z M28,136l4,0 0,4 -4,0 0,-4z M40,136l4,0 0,4 -4,0 0,-4z M48,136l4,0 0,4 -4,0 0,-4z M72,136l4,0 0,4 -4,0 0,-4z M76,136l4,0 0,4 -4,0 0,-4z M80,136l4,0 0,4 -4,0 0,-4z M84,136l4,0 0,4 -4,0 0,-4z M92,136l4,0 0,4 -4,0 0,-4z M100,136l4,0 0,4 -4,0 0,-4z M116,136l4,0 0,4 -4,0 0,-4z M128,136l4,0 0,4 -4,0 0,-4z M132,136l4,0 0,4 -4,0 0,-4z M136,136l4,0 0,4 -4,0 0,-4z M140,136l4,0 0,4 -4,0 0,-4z M148,136l4,0 0,4 -4,0 0,-4z M152,136l4,0 0,4 -4,0 0,-4z M160,136l4,0 0,4 -4,0 0,-4z M168,136l4,0 0,4 -4,0 0,-4z M172,136l4,0 0,4 -4,0 0,-4z M176,136l4,0 0,4 -4,0 0,-4z M188,136l4,0 0,4 -4,0 0,-4z M192,136l4,0 0,4 -4,0 0,-4z M28,140l4,0 0,4 -4,0 0,-4z M32,140l4,0 0,4 -4,0 0,-4z M44,140l4,0 0,4 -4,0 0,-4z M56,140l4,0 0,4 -4,0 0,-4z M60,140l4,0 0,4 -4,0 0,-4z M64,140l4,0 0,4 -4,0 0,-4z M76,140l4,0 0,4 -4,0 0,-4z M80,140l4,0 0,4 -4,0 0,-4z M104,140l4,0 0,4 -4,0 0,-4z M112,140l4,0 0,4 -4,0 0,-4z M116,140l4,0 0,4 -4,0 0,-4z M124,140l4,0 0,4 -4,0 0,-4z M128,140l4,0 0,4 -4,0 0,-4z M132,140l4,0 0,4 -4,0 0,-4z M140,140l4,0 0,4 -4,0 0,-4z M156,140l4,0 0,4 -4,0 0,-4z M184,140l4,0 0,4 -4,0 0,-4z M188,140l4,0 0,4 -4,0 0,-4z M192,140l4,0 0,4 -4,0 0,-4z M20,144l4,0 0,4 -4,0 0,-4z M28,144l4,0 0,4 -4,0 0,-4z M32,144l4,0 0,4 -4,0 0,-4z M36,144l4,0 0,4 -4,0 0,-4z M40,144l4,0 0,4 -4,0 0,-4z M52,144l4,0 0,4 -4,0 0,-4z M56,144l4,0 0,4 -4,0 0,-4z M60,144l4,0 0,4 -4,0 0,-4z M68,144l4,0 0,4 -4,0 0,-4z M72,144l4,0 0,4 -4,0 0,-4z M84,144l4,0 0,4 -4,0 0,-4z M88,144l4,0 0,4 -4,0 0,-4z M92,144l4,0 0,4 -4,0 0,-4z M100,144l4,0 0,4 -4,0 0,-4z M104,144l4,0 0,4 -4,0 0,-4z M116,144l4,0 0,4 -4,0 0,-4z M124,144l4,0 0,4 -4,0 0,-4z M128,144l4,0 0,4 -4,0 0,-4z M132,144l4,0 0,4 -4,0 0,-4z M140,144l4,0 0,4 -4,0 0,-4z M160,144l4,0 0,4 -4,0 0,-4z M172,144l4,0 0,4 -4,0 0,-4z M192,144l4,0 0,4 -4,0 0,-4z M196,144l4,0 0,4 -4,0 0,-4z M20,148l4,0 0,4 -4,0 0,-4z M24,148l4,0 0,4 -4,0 0,-4z M36,148l4,0 0,4 -4,0 0,-4z M44,148l4,0 0,4 -4,0 0,-4z M48,148l4,0 0,4 -4,0 0,-4z M52,148l4,0 0,4 -4,0 0,-4z M56,148l4,0 0,4 -4,0 0,-4z M64,148l4,0 0,4 -4,0 0,-4z M80,148l4,0 0,4 -4,0 0,-4z M88,148l4,0 0,4 -4,0 0,-4z M92,148l4,0 0,4 -4,0 0,-4z M96,148l4,0 0,4 -4,0 0,-4z M100,148l4,0 0,4 -4,0 0,-4z M112,148l4,0 0,4 -4,0 0,-4z M120,148l4,0 0,4 -4,0 0,-4z M128,148l4,0 0,4 -4,0 0,-4z M140,148l4,0 0,4 -4,0 0,-4z M144,148l4,0 0,4 -4,0 0,-4z M148,148l4,0 0,4 -4,0 0,-4z M152,148l4,0 0,4 -4,0 0,-4z M156,148l4,0 0,4 -4,0 0,-4z M164,148l4,0 0,4 -4,0 0,-4z M192,148l4,0 0,4 -4,0 0,-4z M196,148l4,0 0,4 -4,0 0,-4z M24,152l4,0 0,4 -4,0 0,-4z M28,152l4,0 0,4 -4,0 0,-4z M40,152l4,0 0,4 -4,0 0,-4z M56,152l4,0 0,4 -4,0 0,-4z M64,152l4,0 0,4 -4,0 0,-4z M72,152l4,0 0,4 -4,0 0,-4z M80,152l4,0 0,4 -4,0 0,-4z M84,152l4,0 0,4 -4,0 0,-4z M96,152l4,0 0,4 -4,0 0,-4z M112,152l4,0 0,4 -4,0 0,-4z M120,152l4,0 0,4 -4,0 0,-4z M124,152l4,0 0,4 -4,0 0,-4z M140,152l4,0 0,4 -4,0 0,-4z M148,152l4,0 0,4 -4,0 0,-4z M152,152l4,0 0,4 -4,0 0,-4z M160,152l4,0 0,4 -4,0 0,-4z M164,152l4,0 0,4 -4,0 0,-4z M168,152l4,0 0,4 -4,0 0,-4z M176,152l4,0 0,4 -4,0 0,-4z M184,152l4,0 0,4 -4,0 0,-4z M188,152l4,0 0,4 -4,0 0,-4z M196,152l4,0 0,4 -4,0 0,-4z M36,156l4,0 0,4 -4,0 0,-4z M44,156l4,0 0,4 -4,0 0,-4z M48,156l4,0 0,4 -4,0 0,-4z M56,156l4,0 0,4 -4,0 0,-4z M60,156l4,0 0,4 -4,0 0,-4z M64,156l4,0 0,4 -4,0 0,-4z M76,156l4,0 0,4 -4,0 0,-4z M84,156l4,0 0,4 -4,0 0,-4z M92,156l4,0 0,4 -4,0 0,-4z M108,156l4,0 0,4 -4,0 0,-4z M120,156l4,0 0,4 -4,0 0,-4z M128,156l4,0 0,4 -4,0 0,-4z M132,156l4,0 0,4 -4,0 0,-4z M136,156l4,0 0,4 -4,0 0,-4z M140,156l4,0 0,4 -4,0 0,-4z M144,156l4,0 0,4 -4,0 0,-4z M148,156l4,0 0,4 -4,0 0,-4z M152,156l4,0 0,4 -4,0 0,-4z M160,156l4,0 0,4 -4,0 0,-4z M168,156l4,0 0,4 -4,0 0,-4z M176,156l4,0 0,4 -4,0 0,-4z M180,156l4,0 0,4 -4,0 0,-4z M188,156l4,0 0,4 -4,0 0,-4z M192,156l4,0 0,4 -4,0 0,-4z M24,160l4,0 0,4 -4,0 0,-4z M28,160l4,0 0,4 -4,0 0,-4z M32,160l4,0 0,4 -4,0 0,-4z M36,160l4,0 0,4 -4,0 0,-4z M60,160l4,0 0,4 -4,0 0,-4z M68,160l4,0 0,4 -4,0 0,-4z M72,160l4,0 0,4 -4,0 0,-4z M76,160l4,0 0,4 -4,0 0,-4z M80,160l4,0 0,4 -4,0 0,-4z M100,160l4,0 0,4 -4,0 0,-4z M108,160l4,0 0,4 -4,0 0,-4z M112,160l4,0 0,4 -4,0 0,-4z M120,160l4,0 0,4 -4,0 0,-4z M128,160l4,0 0,4 -4,0 0,-4z M148,160l4,0 0,4 -4,0 0,-4z M164,160l4,0 0,4 -4,0 0,-4z M172,160l4,0 0,4 -4,0 0,-4z M176,160l4,0 0,4 -4,0 0,-4z M180,160l4,0 0,4 -4,0 0,-4z M20,164l4,0 0,4 -4,0 0,-4z M32,164l4,0 0,4 -4,0 0,-4z M36,164l4,0 0,4 -4,0 0,-4z M44,164l4,0 0,4 -4,0 0,-4z M76,164l4,0 0,4 -4,0 0,-4z M84,164l4,0 0,4 -4,0 0,-4z M88,164l4,0 0,4 -4,0 0,-4z M92,164l4,0 0,4 -4,0 0,-4z M96,164l4,0 0,4 -4,0 0,-4z M100,164l4,0 0,4 -4,0 0,-4z M104,164l4,0 0,4 -4,0 0,-4z M108,164l4,0 0,4 -4,0 0,-4z M112,164l4,0 0,4 -4,0 0,-4z M116,164l4,0 0,4 -4,0 0,-4z M120,164l4,0 0,4 -4,0 0,-4z M124,164l4,0 0,4 -4,0 0,-4z M136,164l4,0 0,4 -4,0 0,-4z M148,164l4,0 0,4 -4,0 0,-4z M156,164l4,0 0,4 -4,0 0,-4z M164,164l4,0 0,4 -4,0 0,-4z M168,164l4,0 0,4 -4,0 0,-4z M172,164l4,0 0,4 -4,0 0,-4z M176,164l4,0 0,4 -4,0 0,-4z M180,164l4,0 0,4 -4,0 0,-4z M192,164l4,0 0,4 -4,0 0,-4z M196,164l4,0 0,4 -4,0 0,-4z M52,168l4,0 0,4 -4,0 0,-4z M68,168l4,0 0,4 -4,0 0,-4z M76,168l4,0 0,4 -4,0 0,-4z M84,168l4,0 0,4 -4,0 0,-4z M88,168l4,0 0,4 -4,0 0,-4z M96,168l4,0 0,4 -4,0 0,-4z M100,168l4,0 0,4 -4,0 0,-4z M116,168l4,0 0,4 -4,0 0,-4z M120,168l4,0 0,4 -4,0 0,-4z M132,168l4,0 0,4 -4,0 0,-4z M136,168l4,0 0,4 -4,0 0,-4z M140,168l4,0 0,4 -4,0 0,-4z M144,168l4,0 0,4 -4,0 0,-4z M152,168l4,0 0,4 -4,0 0,-4z M156,168l4,0 0,4 -4,0 0,-4z M164,168l4,0 0,4 -4,0 0,-4z M180,168l4,0 0,4 -4,0 0,-4z M188,168l4,0 0,4 -4,0 0,-4z M192,168l4,0 0,4 -4,0 0,-4z M20,172l4,0 0,4 -4,0 0,-4z M24,172l4,0 0,4 -4,0 0,-4z M28,172l4,0 0,4 -4,0 0,-4z M32,172l4,0 0,4 -4,0 0,-4z M36,172l4,0 0,4 -4,0 0,-4z M40,172l4,0 0,4 -4,0 0,-4z M44,172l4,0 0,4 -4,0 0,-4z M76,172l4,0 0,4 -4,0 0,-4z M80,172l4,0 0,4 -4,0 0,-4z M88,172l4,0 0,4 -4,0 0,-4z M96,172l4,0 0,4 -4,0 0,-4z M100,172l4,0 0,4 -4,0 0,-4z M108,172l4,0 0,4 -4,0 0,-4z M116,172l4,0 0,4 -4,0 0,-4z M120,172l4,0 0,4 -4,0 0,-4z M124,172l4,0 0,4 -4,0 0,-4z M128,172l4,0 0,4 -4,0 0,-4z M132,172l4,0 0,4 -4,0 0,-4z M140,172l4,0 0,4 -4,0 0,-4z M152,172l4,0 0,4 -4,0 0,-4z M156,172l4,0 0,4 -4,0 0,-4z M164,172l4,0 0,4 -4,0 0,-4z M172,172l4,0 0,4 -4,0 0,-4z M180,172l4,0 0,4 -4,0 0,-4z M192,172l4,0 0,4 -4,0 0,-4z M20,176l4,0 0,4 -4,0 0,-4z M44,176l4,0 0,4 -4,0 0,-4z M56,176l4,0 0,4 -4,0 0,-4z M60,176l4,0 0,4 -4,0 0,-4z M72,176l4,0 0,4 -4,0 0,-4z M80,176l4,0 0,4 -4,0 0,-4z M84,176l4,0 0,4 -4,0 0,-4z M92,176l4,0 0,4 -4,0 0,-4z M96,176l4,0 0,4 -4,0 0,-4z M100,176l4,0 0,4 -4,0 0,-4z M116,176l4,0 0,4 -4,0 0,-4z M120,176l4,0 0,4 -4,0 0,-4z M124,176l4,0 0,4 -4,0 0,-4z M128,176l4,0 0,4 -4,0 0,-4z M132,176l4,0 0,4 -4,0 0,-4z M148,176l4,0 0,4 -4,0 0,-4z M152,176l4,0 0,4 -4,0 0,-4z M156,176l4,0 0,4 -4,0 0,-4z M160,176l4,0 0,4 -4,0 0,-4z M164,176l4,0 0,4 -4,0 0,-4z M180,176l4,0 0,4 -4,0 0,-4z M192,176l4,0 0,4 -4,0 0,-4z M196,176l4,0 0,4 -4,0 0,-4z M20,180l4,0 0,4 -4,0 0,-4z M28,180l4,0 0,4 -4,0 0,-4z M32,180l4,0 0,4 -4,0 0,-4z M36,180l4,0 0,4 -4,0 0,-4z M44,180l4,0 0,4 -4,0 0,-4z M52,180l4,0 0,4 -4,0 0,-4z M56,180l4,0 0,4 -4,0 0,-4z M60,180l4,0 0,4 -4,0 0,-4z M68,180l4,0 0,4 -4,0 0,-4z M72,180l4,0 0,4 -4,0 0,-4z M76,180l4,0 0,4 -4,0 0,-4z M84,180l4,0 0,4 -4,0 0,-4z M88,180l4,0 0,4 -4,0 0,-4z M100,180l4,0 0,4 -4,0 0,-4z M104,180l4,0 0,4 -4,0 0,-4z M108,180l4,0 0,4 -4,0 0,-4z M112,180l4,0 0,4 -4,0 0,-4z M116,180l4,0 0,4 -4,0 0,-4z M120,180l4,0 0,4 -4,0 0,-4z M124,180l4,0 0,4 -4,0 0,-4z M140,180l4,0 0,4 -4,0 0,-4z M148,180l4,0 0,4 -4,0 0,-4z M156,180l4,0 0,4 -4,0 0,-4z M164,180l4,0 0,4 -4,0 0,-4z M168,180l4,0 0,4 -4,0 0,-4z M172,180l4,0 0,4 -4,0 0,-4z M176,180l4,0 0,4 -4,0 0,-4z M180,180l4,0 0,4 -4,0 0,-4z M196,180l4,0 0,4 -4,0 0,-4z M20,184l4,0 0,4 -4,0 0,-4z M28,184l4,0 0,4 -4,0 0,-4z M32,184l4,0 0,4 -4,0 0,-4z M36,184l4,0 0,4 -4,0 0,-4z M44,184l4,0 0,4 -4,0 0,-4z M56,184l4,0 0,4 -4,0 0,-4z M60,184l4,0 0,4 -4,0 0,-4z M72,184l4,0 0,4 -4,0 0,-4z M76,184l4,0 0,4 -4,0 0,-4z M80,184l4,0 0,4 -4,0 0,-4z M96,184l4,0 0,4 -4,0 0,-4z M100,184l4,0 0,4 -4,0 0,-4z M104,184l4,0 0,4 -4,0 0,-4z M112,184l4,0 0,4 -4,0 0,-4z M124,184l4,0 0,4 -4,0 0,-4z M132,184l4,0 0,4 -4,0 0,-4z M136,184l4,0 0,4 -4,0 0,-4z M140,184l4,0 0,4 -4,0 0,-4z M148,184l4,0 0,4 -4,0 0,-4z M152,184l4,0 0,4 -4,0 0,-4z M160,184l4,0 0,4 -4,0 0,-4z M168,184l4,0 0,4 -4,0 0,-4z M172,184l4,0 0,4 -4,0 0,-4z M176,184l4,0 0,4 -4,0 0,-4z M180,184l4,0 0,4 -4,0 0,-4z M192,184l4,0 0,4 -4,0 0,-4z M196,184l4,0 0,4 -4,0 0,-4z M20,188l4,0 0,4 -4,0 0,-4z M28,188l4,0 0,4 -4,0 0,-4z M32,188l4,0 0,4 -4,0 0,-4z M36,188l4,0 0,4 -4,0 0,-4z M44,188l4,0 0,4 -4,0 0,-4z M56,188l4,0 0,4 -4,0 0,-4z M60,188l4,0 0,4 -4,0 0,-4z M72,188l4,0 0,4 -4,0 0,-4z M80,188l4,0 0,4 -4,0 0,-4z M96,188l4,0 0,4 -4,0 0,-4z M100,188l4,0 0,4 -4,0 0,-4z M108,188l4,0 0,4 -4,0 0,-4z M116,188l4,0 0,4 -4,0 0,-4z M120,188l4,0 0,4 -4,0 0,-4z M128,188l4,0 0,4 -4,0 0,-4z M132,188l4,0 0,4 -4,0 0,-4z M140,188l4,0 0,4 -4,0 0,-4z M144,188l4,0 0,4 -4,0 0,-4z M148,188l4,0 0,4 -4,0 0,-4z M152,188l4,0 0,4 -4,0 0,-4z M168,188l4,0 0,4 -4,0 0,-4z M172,188l4,0 0,4 -4,0 0,-4z M180,188l4,0 0,4 -4,0 0,-4z M184,188l4,0 0,4 -4,0 0,-4z M188,188l4,0 0,4 -4,0 0,-4z M192,188l4,0 0,4 -4,0 0,-4z M20,192l4,0 0,4 -4,0 0,-4z M44,192l4,0 0,4 -4,0 0,-4z M52,192l4,0 0,4 -4,0 0,-4z M56,192l4,0 0,4 -4,0 0,-4z M60,192l4,0 0,4 -4,0 0,-4z M68,192l4,0 0,4 -4,0 0,-4z M72,192l4,0 0,4 -4,0 0,-4z M76,192l4,0 0,4 -4,0 0,-4z M88,192l4,0 0,4 -4,0 0,-4z M92,192l4,0 0,4 -4,0 0,-4z M100,192l4,0 0,4 -4,0 0,-4z M116,192l4,0 0,4 -4,0 0,-4z M128,192l4,0 0,4 -4,0 0,-4z M132,192l4,0 0,4 -4,0 0,-4z M140,192l4,0 0,4 -4,0 0,-4z M148,192l4,0 0,4 -4,0 0,-4z M168,192l4,0 0,4 -4,0 0,-4z M180,192l4,0 0,4 -4,0 0,-4z M20,196l4,0 0,4 -4,0 0,-4z M24,196l4,0 0,4 -4,0 0,-4z M28,196l4,0 0,4 -4,0 0,-4z M32,196l4,0 0,4 -4,0 0,-4z M36,196l4,0 0,4 -4,0 0,-4z M40,196l4,0 0,4 -4,0 0,-4z M44,196l4,0 0,4 -4,0 0,-4z M64,196l4,0 0,4 -4,0 0,-4z M72,196l4,0 0,4 -4,0 0,-4z M84,196l4,0 0,4 -4,0 0,-4z M108,196l4,0 0,4 -4,0 0,-4z M112,196l4,0 0,4 -4,0 0,-4z M116,196l4,0 0,4 -4,0 0,-4z M120,196l4,0 0,4 -4,0 0,-4z M128,196l4,0 0,4 -4,0 0,-4z M132,196l4,0 0,4 -4,0 0,-4z M148,196l4,0 0,4 -4,0 0,-4z M160,196l4,0 0,4 -4,0 0,-4z M164,196l4,0 0,4 -4,0 0,-4z M168,196l4,0 0,4 -4,0 0,-4z M176,196l4,0 0,4 -4,0 0,-4z M196,196l4,0 0,4 -4,0 0,-4z "
     stroke="transparent"
     fill="#0c0c0d"
     id="path867"
     style="fill:#ff00b4;fill-opacity:1" />
</svg>
