<?xml version="1.0" encoding="UTF-8" standalone="no"?>
<!-- Created with Inkscape (http://www.inkscape.org/) -->

<svg
   xmlns:dc="http://purl.org/dc/elements/1.1/"
   xmlns:cc="http://creativecommons.org/ns#"
   xmlns:rdf="http://www.w3.org/1999/02/22-rdf-syntax-ns#"
   xmlns:svg="http://www.w3.org/2000/svg"
   xmlns="http://www.w3.org/2000/svg"
   xmlns:xlink="http://www.w3.org/1999/xlink"
   xmlns:sodipodi="http://sodipodi.sourceforge.net/DTD/sodipodi-0.dtd"
   xmlns:inkscape="http://www.inkscape.org/namespaces/inkscape"
   width="175mm"
   height="175mm"
   viewBox="0 0 175 175"
   version="1.1"
   id="svg8"
   inkscape:version="0.92.5 (2060ec1f9f, 2020-04-08)"
   sodipodi:docname="Mylogo.svg">
  <defs
     id="defs2">
    <linearGradient
       id="linearGradient906">
      <stop
         style="stop-color:#ff00b4;stop-opacity:1;"
         offset="0"
         id="stop902" />
      <stop
         style="stop-color:#ffffff;stop-opacity:1;"
         offset="1"
         id="stop904" />
    </linearGradient>
    <linearGradient
       inkscape:collect="always"
       xlink:href="#linearGradient906"
       id="linearGradient908"
       x1="412.32758"
       y1="540.33099"
       x2="80.415855"
       y2="221.6362"
       gradientUnits="userSpaceOnUse" />
    <linearGradient
       inkscape:collect="always"
       xlink:href="#linearGradient906"
       id="linearGradient916"
       x1="111.59205"
       y1="148.70393"
       x2="22.017601"
       y2="59.063831"
       gradientUnits="userSpaceOnUse"
       gradientTransform="translate(1.5875,-0.52916667)" />
    <linearGradient
       inkscape:collect="always"
       xlink:href="#linearGradient906"
       id="linearGradient924"
       x1="111.59212"
       y1="148.70393"
       x2="22.469749"
       y2="60.423325"
       gradientUnits="userSpaceOnUse" />
  </defs>
  <sodipodi:namedview
     id="base"
     pagecolor="#ffffff"
     bordercolor="#666666"
     borderopacity="1.0"
     inkscape:pageopacity="0.0"
     inkscape:pageshadow="2"
     inkscape:zoom="0.55300416"
     inkscape:cx="395.41732"
     inkscape:cy="320.00658"
     inkscape:document-units="mm"
     inkscape:current-layer="g833"
     showgrid="false"
     showguides="true"
     inkscape:window-width="1881"
     inkscape:window-height="1023"
     inkscape:window-x="1719"
     inkscape:window-y="27"
     inkscape:window-maximized="1"
     inkscape:guide-bbox="true">
    <sodipodi:guide
       position="87.077407,26.793048"
       orientation="1,0"
       id="guide837"
       inkscape:locked="false" />
  </sodipodi:namedview>
  <metadata
     id="metadata5">
    <rdf:RDF>
      <cc:Work
         rdf:about="">
        <dc:format>image/svg+xml</dc:format>
        <dc:type
           rdf:resource="http://purl.org/dc/dcmitype/StillImage" />
        <dc:title />
      </cc:Work>
    </rdf:RDF>
  </metadata>
  <g
     inkscape:groupmode="layer"
     id="layer2"
     inkscape:label="Layer 2"
     style="display:inline"
     transform="translate(0,-122)" />
  <g
     inkscape:label="Layer 1"
     inkscape:groupmode="layer"
     id="layer1"
     style="display:inline"
     transform="translate(0,-122)">
    <flowRoot
       xml:space="preserve"
       id="flowRoot29"
       style="font-style:normal;font-weight:normal;font-size:40px;line-height:1.25;font-family:sans-serif;letter-spacing:0px;word-spacing:0px;fill:#000000;fill-opacity:1;stroke:none"><flowRegion
         id="flowRegion31"><rect
           id="rect33"
           width="311.42856"
           height="125.71429"
           x="131.42857"
           y="431.09113" /></flowRegion><flowPara
         id="flowPara35" /></flowRoot>    <text
       xml:space="preserve"
       style="font-style:normal;font-weight:normal;font-size:10.58333302px;line-height:1.25;font-family:sans-serif;letter-spacing:0px;word-spacing:0px;fill:#000000;fill-opacity:1;stroke:none;stroke-width:0.26458332"
       x="94.494049"
       y="141.2738"
       id="text39"><tspan
         sodipodi:role="line"
         id="tspan37"
         x="94.494049"
         y="150.63757"
         style="stroke-width:0.26458332" /></text>
    <g
       id="g833"
       transform="translate(-22.017603,62.824458)">
      <path
         sodipodi:nodetypes="ccccccccccc"
         inkscape:connector-curvature="0"
         id="path14"
         transform="scale(0.26458333)"
         d="m 413.92578,280.75 c -151.11376,-6.3e-4 -273.61545,122.50141 -273.61523,273.61523 7e-4,151.11319 122.50212,273.61393 273.61523,273.61329 C 565.03813,827.97806 687.53834,705.47766 687.53906,554.36523 687.53929,403.25216 565.03878,280.75045 413.92578,280.75 Z m -6.53125,47.94922 c 121.83178,-3.76993 225.98191,95.26074 231.00781,217.04687 l 0.18946,5.16602 C 638.59194,672.80157 540.44773,775.96334 418.56445,777.2207 296.68111,778.47785 196.51221,681.36164 193.99805,559.49805 191.48424,437.63432 285.5629,332.46958 407.39453,328.69922 Z"
         style="fill:url(#linearGradient908);fill-opacity:1;stroke:#ffffff;stroke-width:0.93429339;stroke-opacity:0" />
      <path
         inkscape:connector-curvature="0"
         id="path44"
         d="m 84.300593,191.84817 -0.963306,-2.05041 0.988002,-0.70502 c 3.587199,-2.55977 5.830213,-6.81977 6.281343,-11.9297 0.08481,-0.96068 0.229174,-13.42977 0.3208,-27.70907 0.09162,-14.2793 0.195162,-28.4276 0.230081,-31.44066 l 0.06349,-5.4783 -0.776938,-8.25714 c -0.427318,-4.541427 -0.777412,-8.346447 -0.777989,-8.455617 -0.0016,-0.318987 26.487994,-0.283435 28.946524,0.03885 7.69362,1.008545 12.39076,4.255917 13.934,9.633327 0.47533,1.65627 0.60104,5.00879 0.25114,6.6975 -0.51612,2.49102 -1.47575,4.29105 -3.27611,6.14518 -1.89732,1.95401 -4.61744,3.54732 -7.58228,4.44132 -1.2378,0.37324 -1.57342,0.79225 -0.63516,0.79297 0.28384,1.6e-4 1.16011,0.17295 1.94727,0.38385 6.99383,1.87377 11.37509,7.63333 11.36409,14.93911 -0.004,2.61433 -0.61936,4.52373 -2.14897,6.66728 -3.27343,4.58729 -11.44088,7.86428 -19.65772,7.88716 -1.28819,0.004 -2.34217,0.0468 -2.34217,0.0961 0,0.0493 0.35889,5.01174 0.79754,11.02771 l 0.79754,10.93811 -0.94886,1.38192 c -1.53631,2.23748 -2.97228,3.95276 -5.0888,6.07862 -3.38461,3.39956 -6.75622,5.84489 -10.721991,7.77636 -3.161265,1.53965 -5.917422,2.4244 -9.544661,3.06391 l -0.493559,0.087 z m 28.879037,-43.6734 c 1.31632,-0.38009 2.33273,-1.23471 2.86232,-2.40671 l 0.37941,-0.83964 -0.0347,-8.2346 -0.0347,-8.23461 -0.40089,-0.68407 c -0.73093,-1.24724 -2.10249,-2.14172 -3.2798,-2.13896 -0.42563,0.001 -1.39145,0.25415 -1.67982,0.44031 -0.28173,0.18188 -0.92699,22.27433 -0.65547,22.44214 0.27627,0.17074 1.62712,0.007 2.84358,-0.34386 z m 0,-26.35935 c 1.31632,-0.38008 2.33273,-1.2347 2.86232,-2.4067 l 0.37941,-0.83964 -0.0347,-8.23461 -0.0347,-8.2346 -0.40089,-0.68407 c -0.73093,-1.24724 -2.10249,-2.141714 -3.2798,-2.138964 -0.42563,10e-4 -1.39145,0.254157 -1.67982,0.440317 -0.28173,0.18187 -0.92699,22.274327 -0.65547,22.442127 0.27627,0.17075 1.62712,0.007 2.84358,-0.34386 z"
         style="fill:url(#linearGradient916);fill-opacity:1;stroke:#ffffff;stroke-width:0.15879123;stroke-opacity:0" />
      <path
         d="m 132.37951,165.20328 a 7.1456056,7.1456056 0 0 1 -7.13154,7.14559 7.1456056,7.1456056 0 0 1 -7.15962,-7.11746 7.1456056,7.1456056 0 0 1 7.10335,-7.17361 7.1456056,7.1456056 0 0 1 7.18759,7.08921 l -7.14539,0.0563 z"
         sodipodi:end="6.275311"
         sodipodi:start="0"
         sodipodi:ry="7.1456056"
         sodipodi:rx="7.1456056"
         sodipodi:cy="165.20328"
         sodipodi:cx="125.2339"
         sodipodi:type="arc"
         id="path46"
         style="fill:url(#linearGradient924);fill-opacity:1;stroke:#ffffff;stroke-width:0.26458332;stroke-opacity:0" />
    </g>
  </g>
</svg>
